<?xml version="1.0" encoding="UTF-8"?><svg xmlns="http://www.w3.org/2000/svg" xmlns:xlink="http://www.w3.org/1999/xlink" fill-opacity="1" color-rendering="auto" color-interpolation="auto" text-rendering="auto" stroke="black" stroke-linecap="square" width="211" stroke-miterlimit="10" shape-rendering="auto" stroke-opacity="1" fill="black" stroke-dasharray="none" font-weight="normal" stroke-width="1" height="763" font-family="'Dialog'" font-style="normal" stroke-linejoin="miter" font-size="12px" stroke-dashoffset="0" image-rendering="auto">
  <!--Generated by ySVG 2.5-->
  <defs id="genericDefs"/>
  <g>
    <defs id="defs1">
      <linearGradient x1="301.5" gradientUnits="userSpaceOnUse" x2="481.5" y1="98.5" y2="198.5" id="linearGradient1" spreadMethod="reflect">
        <stop stop-opacity="1" stop-color="white" offset="0%"/>
        <stop stop-opacity="1" stop-color="white" offset="100%"/>
      </linearGradient>
      <linearGradient x1="301.5" gradientUnits="userSpaceOnUse" x2="481.5" y1="225" y2="325" id="linearGradient2" spreadMethod="reflect">
        <stop stop-opacity="1" stop-color="white" offset="0%"/>
        <stop stop-opacity="1" stop-color="white" offset="100%"/>
      </linearGradient>
      <linearGradient x1="301.5" gradientUnits="userSpaceOnUse" x2="481.5" y1="604.5" y2="704.5" id="linearGradient3" spreadMethod="reflect">
        <stop stop-opacity="1" stop-color="white" offset="0%"/>
        <stop stop-opacity="1" stop-color="white" offset="100%"/>
      </linearGradient>
      <linearGradient x1="301.5" gradientUnits="userSpaceOnUse" x2="481.5" y1="478" y2="578" id="linearGradient4" spreadMethod="reflect">
        <stop stop-opacity="1" stop-color="white" offset="0%"/>
        <stop stop-opacity="1" stop-color="white" offset="100%"/>
      </linearGradient>
      <linearGradient x1="301.5" gradientUnits="userSpaceOnUse" x2="481.5" y1="731" y2="831" id="linearGradient5" spreadMethod="reflect">
        <stop stop-opacity="1" stop-color="white" offset="0%"/>
        <stop stop-opacity="1" stop-color="white" offset="100%"/>
      </linearGradient>
      <linearGradient x1="301.5" gradientUnits="userSpaceOnUse" x2="481.5" y1="351.5" y2="451.5" id="linearGradient6" spreadMethod="reflect">
        <stop stop-opacity="1" stop-color="white" offset="0%"/>
        <stop stop-opacity="1" stop-color="white" offset="100%"/>
      </linearGradient>
      <clipPath clipPathUnits="userSpaceOnUse" id="clipPath1">
        <path d="M0 0 L211 0 L211 763 L0 763 L0 0 Z"/>
      </clipPath>
      <clipPath clipPathUnits="userSpaceOnUse" id="clipPath2">
        <path d="M286 83 L497 83 L497 846 L286 846 L286 83 Z"/>
      </clipPath>
    </defs>
    <g fill="white" text-rendering="geometricPrecision" shape-rendering="geometricPrecision" transform="translate(-286,-83)" stroke="white">
      <rect x="286" width="211" height="763" y="83" clip-path="url(#clipPath2)" stroke="none"/>
    </g>
    <g fill="url(#linearGradient1)" text-rendering="geometricPrecision" shape-rendering="geometricPrecision" transform="matrix(1,0,0,1,-286,-83)" stroke="url(#linearGradient1)">
      <rect x="301.5" y="98.5" clip-path="url(#clipPath2)" width="180" rx="50" ry="50" height="100" stroke="none"/>
    </g>
    <g text-rendering="geometricPrecision" stroke-miterlimit="1.45" shape-rendering="geometricPrecision" transform="matrix(1,0,0,1,-286,-83)" stroke-linecap="butt">
      <rect x="301.5" y="98.5" clip-path="url(#clipPath2)" fill="none" width="180" rx="50" ry="50" height="100"/>
      <text x="357.126" font-size="18px" y="154.7314" clip-path="url(#clipPath2)" font-family="sans-serif" stroke="none" xml:space="preserve">Начало</text>
    </g>
    <g fill="url(#linearGradient2)" text-rendering="geometricPrecision" shape-rendering="geometricPrecision" transform="matrix(1,0,0,1,-286,-83)" stroke="url(#linearGradient2)">
      <path d="M311.5 225 L471.5 225 L481.5 235 L481.5 325 L301.5 325 L301.5 235 Z" stroke="none" clip-path="url(#clipPath2)"/>
    </g>
    <g text-rendering="geometricPrecision" stroke-miterlimit="1.45" shape-rendering="geometricPrecision" transform="matrix(1,0,0,1,-286,-83)" stroke-linecap="butt">
      <path fill="none" d="M311.5 225 L471.5 225 L481.5 235 L481.5 325 L301.5 325 L301.5 235 Z" clip-path="url(#clipPath2)"/>
      <text x="327.7837" font-size="18px" y="270.7549" clip-path="url(#clipPath2)" font-family="sans-serif" stroke="none" xml:space="preserve">Цикл по всем</text>
      <text x="345.8892" font-size="18px" y="291.708" clip-path="url(#clipPath2)" font-family="sans-serif" stroke="none" xml:space="preserve">пикселям</text>
    </g>
    <g fill="url(#linearGradient3)" text-rendering="geometricPrecision" shape-rendering="geometricPrecision" transform="matrix(1,0,0,1,-286,-83)" stroke="url(#linearGradient3)">
      <path d="M301.5 604.5 L481.5 604.5 L481.5 694.5 L471.5 704.5 L311.5 704.5 L301.5 694.5 Z" stroke="none" clip-path="url(#clipPath2)"/>
    </g>
    <g text-rendering="geometricPrecision" stroke-miterlimit="1.45" shape-rendering="geometricPrecision" transform="matrix(1,0,0,1,-286,-83)" stroke-linecap="butt">
      <path fill="none" d="M301.5 604.5 L481.5 604.5 L481.5 694.5 L471.5 704.5 L311.5 704.5 L301.5 694.5 Z" clip-path="url(#clipPath2)"/>
      <text x="330.5171" font-size="18px" y="660.7314" clip-path="url(#clipPath2)" font-family="sans-serif" stroke="none" xml:space="preserve">Конец цикла</text>
    </g>
    <g fill="url(#linearGradient4)" text-rendering="geometricPrecision" shape-rendering="geometricPrecision" transform="matrix(1,0,0,1,-286,-83)" stroke="url(#linearGradient4)">
      <path d="M301.5 478 L481.5 478 L481.5 578 L301.5 578 Z" stroke="none" clip-path="url(#clipPath2)"/>
    </g>
    <g text-rendering="geometricPrecision" stroke-miterlimit="1.45" shape-rendering="geometricPrecision" transform="matrix(1,0,0,1,-286,-83)" stroke-linecap="butt">
      <path fill="none" d="M301.5 478 L481.5 478 L481.5 578 L301.5 578 Z" clip-path="url(#clipPath2)"/>
      <text x="356.4888" font-size="18px" y="502.8018" clip-path="url(#clipPath2)" font-family="sans-serif" stroke="none" xml:space="preserve">Замена</text>
      <text x="340.0752" font-size="18px" y="523.7549" clip-path="url(#clipPath2)" font-family="sans-serif" stroke="none" xml:space="preserve">параметра</text>
      <text x="304.0269" font-size="18px" y="544.708" clip-path="url(#clipPath2)" font-family="sans-serif" stroke="none" xml:space="preserve">текущего пикселя</text>
      <text x="351.9009" font-size="18px" y="565.6611" clip-path="url(#clipPath2)" font-family="sans-serif" stroke="none" xml:space="preserve">Cij = Cm</text>
    </g>
    <g fill="url(#linearGradient5)" text-rendering="geometricPrecision" shape-rendering="geometricPrecision" transform="matrix(1,0,0,1,-286,-83)" stroke="url(#linearGradient5)">
      <rect x="301.5" y="731" clip-path="url(#clipPath2)" width="180" rx="50" ry="50" height="100" stroke="none"/>
    </g>
    <g text-rendering="geometricPrecision" stroke-miterlimit="1.45" shape-rendering="geometricPrecision" transform="matrix(1,0,0,1,-286,-83)" stroke-linecap="butt">
      <rect x="301.5" y="731" clip-path="url(#clipPath2)" fill="none" width="180" rx="50" ry="50" height="100"/>
      <text x="362.0566" font-size="18px" y="787.2314" clip-path="url(#clipPath2)" font-family="sans-serif" stroke="none" xml:space="preserve">Конец</text>
    </g>
    <g fill="url(#linearGradient6)" text-rendering="geometricPrecision" shape-rendering="geometricPrecision" transform="matrix(1,0,0,1,-286,-83)" stroke="url(#linearGradient6)">
      <rect x="301.5" width="180" height="100" y="351.5" clip-path="url(#clipPath2)" stroke="none"/>
    </g>
    <g text-rendering="geometricPrecision" stroke-miterlimit="1.45" shape-rendering="geometricPrecision" transform="matrix(1,0,0,1,-286,-83)" stroke-linecap="butt">
      <rect fill="none" x="301.5" width="180" height="100" y="351.5" clip-path="url(#clipPath2)"/>
      <path fill="none" d="M311.5 351.5 L311.5 451.5 M471.5 351.5 L471.5 451.5 M311.5 351.5 Z" clip-path="url(#clipPath2)"/>
      <text x="349.0972" font-size="18px" y="365.8252" clip-path="url(#clipPath2)" font-family="sans-serif" stroke="none" xml:space="preserve">Подсчёт </text>
      <text x="330.6841" font-size="18px" y="386.7783" clip-path="url(#clipPath2)" font-family="sans-serif" stroke="none" xml:space="preserve">медианы Cm</text>
      <text x="340.0752" font-size="18px" y="407.7314" clip-path="url(#clipPath2)" font-family="sans-serif" stroke="none" xml:space="preserve">параметра</text>
      <text x="347.2778" font-size="18px" y="428.6846" clip-path="url(#clipPath2)" font-family="sans-serif" stroke="none" xml:space="preserve">соседних</text>
      <text x="347.2822" font-size="18px" y="449.6377" clip-path="url(#clipPath2)" font-family="sans-serif" stroke="none" xml:space="preserve">пикселов</text>
    </g>
    <g text-rendering="geometricPrecision" stroke-miterlimit="1.45" shape-rendering="geometricPrecision" transform="matrix(1,0,0,1,-286,-83)" stroke-linecap="butt">
      <path fill="none" d="M391.5 198.5009 L391.5 216.9842" clip-path="url(#clipPath2)"/>
    </g>
    <g text-rendering="geometricPrecision" stroke-miterlimit="1.45" shape-rendering="geometricPrecision" transform="matrix(1,0,0,1,-286,-83)" stroke-linecap="butt">
      <path d="M391.5 224.9842 L396.5 212.9842 L391.5 215.9842 L386.5 212.9842 Z" stroke="none" clip-path="url(#clipPath2)"/>
      <path fill="none" d="M391.5 578.0009 L391.5 596.4842" clip-path="url(#clipPath2)"/>
      <path d="M391.5 604.4842 L396.5 592.4842 L391.5 595.4842 L386.5 592.4842 Z" clip-path="url(#clipPath2)" stroke="none"/>
      <path fill="none" d="M391.5 704.5009 L391.5 722.9842" clip-path="url(#clipPath2)"/>
      <path d="M391.5 730.9842 L396.5 718.9842 L391.5 721.9842 L386.5 718.9842 Z" clip-path="url(#clipPath2)" stroke="none"/>
      <path fill="none" d="M391.5 325.0009 L391.5 343.4842" clip-path="url(#clipPath2)"/>
      <path d="M391.5 351.4842 L396.5 339.4842 L391.5 342.4842 L386.5 339.4842 Z" clip-path="url(#clipPath2)" stroke="none"/>
      <path fill="none" d="M391.5 451.5009 L391.5 469.9842" clip-path="url(#clipPath2)"/>
      <path d="M391.5 477.9842 L396.5 465.9842 L391.5 468.9842 L386.5 465.9842 Z" clip-path="url(#clipPath2)" stroke="none"/>
    </g>
  </g>
</svg>
